<svg xmlns="http://www.w3.org/2000/svg" id="Layer_1" x="0" y="0" enable-background="new 0 0 20 20" version="1.1" viewBox="0 0 20 20" xml:space="preserve"><path id="XMLID_442_" fill="none" stroke="#000" stroke-miterlimit="10" d="M16.5,15.5h-12c-0.5,0-1-0.4-1-1v-7c0-0.6,0.5-1,1-1h12c0.5,0,1,0.5,1,1v7   C17.5,15.1,17,15.5,16.5,15.5z"/><g id="XMLID_440_"><path id="XMLID_441_" d="M13,6.5c-0.3,0-0.5-0.2-0.5-0.5V5h-4v1c0,0.3-0.2,0.5-0.5,0.5S7.5,6.3,7.5,6V4.5C7.5,4.2,7.7,4,8,4h5    c0.3,0,0.5,0.2,0.5,0.5V6C13.5,6.3,13.3,6.5,13,6.5z"/></g><path id="XMLID_443_" fill="none" stroke="#000" stroke-miterlimit="10" d="M11.5,10.5h5c0.6,0,1-0.4,1-1"/><path id="XMLID_439_" fill="none" stroke="#000" stroke-miterlimit="10" d="M3.5,9.5c0,0.6,0.4,1,1,1H9"/><path id="XMLID_438_" fill="none" stroke="#000" stroke-miterlimit="10" d="M12,11c0,0.3-0.2,0.5-0.5,0.5h-2C9.2,11.5,9,11.3,9,11v-1c0-0.3,0.2-0.5,0.5-0.5h2   c0.3,0,0.5,0.2,0.5,0.5V11z"/></svg>