<svg xmlns="http://www.w3.org/2000/svg" viewBox="0 0 25 25"><path d="M21.5,10H21V7.5A2.5,2.5,0,0,0,18.5,5H5.5A2.5,2.5,0,0,0,3,7.5v10A2.5,2.5,0,0,0,5.5,20h13A2.5,2.5,0,0,0,21,17.5V15h.5a.5.5,0,0,0,.5-.5v-4A.5.5,0,0,0,21.5,10ZM18,12.69a.36.36,0,0,1-.11.16.48.48,0,0,1-.7,0A.45.45,0,0,1,17,12.5a.47.47,0,0,1,.15-.35.5.5,0,0,1,.7,0,.47.47,0,0,1,.15.35A.41.41,0,0,1,18,12.69Zm2,4.81A1.5,1.5,0,0,1,18.5,19H5.5A1.5,1.5,0,0,1,4,17.5V7.5A1.5,1.5,0,0,1,5.5,6h13A1.5,1.5,0,0,1,20,7.5V10H17.5A2.51,2.51,0,0,0,15,12.5,2.5,2.5,0,0,0,17.5,15H20Z"/></svg>